General
Complete name                    : D:Chance Pe Dance 2010 S-CAM-DVDrVIDEO_TSVTS_01_1-muxed.mkv
Format                           : Matroska
File size                        : 699 MiB
Duration                         : 1h 43mn
Overall bit rate                 : 945 Kbps
Encoded date                     : UTC 2010-01-15 22:29:39
Writing application              : mkvmerge v2.9.7 ('Tenderness') built on Jul  1 2009 18:43:35
Writing library                  : libebml v0.7.7 + libmatroska v0.8.1

Video
ID                               : 1
Format                           : AVC
Format/Info                      : Advanced Video Codec
Format profile                   : Main@L2.1
Format settings, CABAC           : Yes
Format settings, ReFrames        : 2 frames
Muxing mode                      : Container profile=Unknown@2.1
Codec ID                         : V_MPEG4/ISO/AVC
Duration                         : 1h 43mn
Bit rate                         : 837 Kbps
Nominal bit rate                 : 847 Kbps
Width                            : 640 pixels
Height                           : 272 pixels
Display aspect ratio             : 2.35:1
Frame rate                       : 25.000 fps
Resolution                       : 24 bits
Colorimetry                      : 4:2:0
Scan type                        : Progressive
Bits/(Pixel*Frame)               : 0.192
Stream size                      : 619 MiB (89%)
Writing library                  : x264 core 68 r1183M f21daff
Encoding settings                : cabac=1 / ref=2 / deblock=1:0:0 / analyse=0x1:0x111 / me=hex / subme=4 / psy_rd=0.0:0.0 / mixed_ref=0 / me_range=16 / chroma_me=1 / trellis=1 / 8x8dct=0 / cqm=0 / deadzone=21,11 / chroma_qp_offset=0 / threads=6 / nr=0 / decimate=1 / mbaff=0 / bframes=3 / b_pyramid=0 / b_adapt=1 / b_bias=0 / direct=1 / wpredb=1 / keyint=250 / keyint_min=25 / scenecut=40 / rc=abr / bitrate=847 / ratetol=1.0 / qcomp=0.60 / qpmin=10 / qpmax=51 / qpstep=4 / ip_ratio=1.40 / pb_ratio=1.30 / aq=1:1.00

Audio
ID                               : 2
Format                           : MPEG Audio
Format version                   : Version 1
Format profile                   : Layer 3
Format_Settings_Mode             : Joint stereo
Codec ID                         : A_MPEG/L3
Codec ID/Hint                    : MP3
Duration                         : 1h 43mn
Bit rate mode                    : Variable
Bit rate                         : 89.3 Kbps
Nominal bit rate                 : 96.0 Kbps
Channel(s)                       : 2 channels
Sampling rate                    : 32.0 KHz
Resolution                       : 16 bits
Stream size                      : 66.0 MiB (9%)
Writing library                  : LAME3.98r
Encoding settings                : -m j -V 4 -q 2 -lowpass 15.1 --abr 96


screenshots
 
http://img40.imageshack.us/img40/2323/vlcsnap2247015.png 
http://img685.imageshack.us/img685/8551/vlcsnap2247096.png 
http://img707.imageshack.us/img707/8049/vlcsnap2247345.png 
http://img685.imageshack.us/img685/4847/vlcsnap2247569.png 
http://img64.imageshack.us/img64/9339/vlcsnap2247698.png 
http://img59.imageshack.us/img59/5861/vlcsnap2247757.png 
http://img59.imageshack.us/img59/3618/vlcsnap2248179.png 
http://img693.imageshack.us/img693/896/vlcsnap2248354.png

